<svg width="12" height="12" viewBox="0 0 12 12" fill="none" xmlns="http://www.w3.org/2000/svg"><path fill-rule="evenodd" clip-rule="evenodd" d="M5.25 0C2.35051 0 0 2.35051 0 5.25C0 8.1495 2.35051 10.5 5.25 10.5C6.43194 10.5 7.52265 10.1094 8.40011 9.4503C8.4211 9.47819 8.44428 9.50494 8.46967 9.53033L10.7197 11.7803C11.0126 12.0732 11.4874 12.0732 11.7803 11.7803C12.0732 11.4874 12.0732 11.0126 11.7803 10.7197L9.53033 8.46967C9.50494 8.44428 9.47819 8.4211 9.4503 8.40011C10.1094 7.52265 10.5 6.43194 10.5 5.25C10.5 2.35051 8.1495 0 5.25 0ZM1.5 5.25C1.5 3.17893 3.17893 1.5 5.25 1.5C7.32107 1.5 9 3.17893 9 5.25C9 7.32107 7.32107 9 5.25 9C3.17893 9 1.5 7.32107 1.5 5.25Z" fill="currentColor"></path></svg>